<svg id="Capa_1" data-name="Capa 1" xmlns="http://www.w3.org/2000/svg" viewBox="0 0 1000 1000"><defs><style>.cls-1{fill:#29166f;}.cls-1,.cls-2,.cls-3{stroke:#db251b;stroke-miterlimit:10;}.cls-1,.cls-2{stroke-width:12px;}.cls-2{fill:none;}.cls-3{font-size:110px;stroke-width:3px;font-family:NimbusSanL-Reg, Nimbus Sans L;}.cls-3,.cls-4{fill:#db251b;}</style></defs><title>logo itc</title><circle class="cls-1" cx="500" cy="500" r="460"/><circle class="cls-2" cx="500" cy="500" r="288"/><text class="cls-3" transform="translate(277.66 254.41) rotate(-35.33)">C</text><text class="cls-3" transform="translate(339.21 209.81) rotate(-21.6)">O</text><text class="cls-3" transform="translate(417.34 180.09) rotate(-9.1)">L</text><text class="cls-3" transform="matrix(1, 0.04, -0.04, 1, 476.58, 169.91)">E</text><text class="cls-3" transform="translate(547.64 171.69) rotate(15.63)">G</text><text class="cls-3" transform="translate(628.88 196.91) rotate(25.74)">I</text><text class="cls-3" transform="matrix(0.81, 0.58, -0.58, 0.81, 657.42, 207.99)">O</text><text class="cls-3" transform="translate(167.76 739.23) rotate(52.07)">I</text><text class="cls-3" transform="translate(194.12 774.53) rotate(42.56)">N</text><text class="cls-3" transform="translate(265.76 837.78) rotate(29.24)">D</text><text class="cls-3" transform="matrix(0.96, 0.27, -0.27, 0.96, 350.14, 882.84)">U</text><text class="cls-3" transform="translate(441.13 906.53) rotate(3.07)">S</text><text class="cls-3" transform="translate(526.26 909.64) rotate(-8.3)">T</text><text class="cls-3" transform="translate(605.81 897.27) rotate(-20.46)">R</text><text class="cls-3" transform="translate(689.65 862.89) rotate(-29.78)">I</text><text class="cls-3" transform="translate(726.48 842.69) rotate(-38.62)">A</text><text class="cls-3" transform="matrix(0.64, -0.77, 0.77, 0.64, 793.95, 786.15)">L</text><text/><path class="cls-4" d="M263.68,612.16v-224h52.48v224Z"/><path class="cls-4" d="M519.68,388.16v49.6h-62.4v174.4H404.8V437.76H343v-49.6Z"/><path class="cls-4" d="M680.64,457l-.32,1a44.78,44.78,0,0,0-18.24-16.32,53.5,53.5,0,0,0-23-5.44q-24.33,0-37.76,17.28T587.84,500.8q0,30.72,14.4,47.36t37.44,16.64a54,54,0,0,0,26.56-6.72q11.84-6.72,18.24-20.8L736.32,551q-11.84,30.4-37.44,48.32-24.64,17.28-59.52,17.28a115,115,0,0,1-42.24-8A90.72,90.72,0,0,1,563.52,585a111.3,111.3,0,0,1-22.08-36.8q-8-21.12-8-48t8-48a111.19,111.19,0,0,1,22.08-36.8,90.72,90.72,0,0,1,33.6-23.68,109.59,109.59,0,0,1,42.24-8.32q32.64,0,56.32,15.68,24,16,37.44,44.16Z"/></svg>
